# xmcd
#
# Track frame offsets: 
#        150
#        11907
#        23495
#        35867
#        52620
#        68860
#        78870
#        86285
#        109410
#        121152
#        135650
#        151755
#        168582
#        179385
#        194942
#        205680
#        219125
#        233157
#        246815
#        263182
#        285465
#
# Disc length: 3945 seconds
#
# Revision: 0
# Processed by: cddbd v1.5.2PL0 Copyright (c) Steve Scherf et al.
# Submitted via: ExactAudioCopyFreeDBPlugin 1.0
#
DISCID=1a0f6715
DTITLE=Paul Franklin - Looking Back Disc 1
DYEAR=2003
DGENRE=Instrumental
TTITLE0=C-Jam Blues
TTITLE1=Song For Sara
TTITLE2=Just Pickin'
TTITLE3=Move
TTITLE4=Mode's Blues
TTITLE5=Rocky Top
TTITLE6=All The Things You Are
TTITLE7=How High The Moon
TTITLE8=Pretty Things
TTITLE9=Billy's Bounce
TTITLE10=I Love You Because
TTITLE11=Crazy Arms
TTITLE12=Roly Poly
TTITLE13=Today I Started Loving You Again
TTITLE14=Orange Blossom Special
TTITLE15=Release Me
TTITLE16=Maria
TTITLE17=Mister D
TTITLE18=Tune 88
TTITLE19=In A Mellow Tone
TTITLE20=Donna Lee
EXTD=
EXTT0=
EXTT1=
EXTT2=
EXTT3=
EXTT4=
EXTT5=
EXTT6=
EXTT7=
EXTT8=
EXTT9=
EXTT10=
EXTT11=
EXTT12=
EXTT13=
EXTT14=
EXTT15=
EXTT16=
EXTT17=
EXTT18=
EXTT19=
EXTT20=
PLAYORDER=
